<svg width="32" height="27" viewBox="0 0 32 27" fill="none" xmlns="http://www.w3.org/2000/svg">
<path fill-rule="evenodd" clip-rule="evenodd" d="M15.998 7.00098C11.579 7.00098 7.99805 10.582 7.99805 15.001C7.99805 19.419 11.579 23.001 15.998 23.001C20.416 23.001 23.998 19.419 23.998 15.001C23.998 10.583 20.416 7.00098 15.998 7.00098ZM20.553 18.906C18.397 21.422 14.61 21.713 12.094 19.556C9.57705 17.4 9.28705 13.612 11.444 11.097C13.599 8.57998 17.387 8.28998 19.903 10.447C22.418 12.602 22.709 16.391 20.553 18.906Z" fill="currentColor"/>
<path fill-rule="evenodd" clip-rule="evenodd" d="M15.998 11.001C13.789 11.001 11.999 12.792 11.998 15V15.002C11.998 15.277 12.222 15.502 12.498 15.502C12.774 15.502 12.998 15.277 12.998 15.002V15C12.999 13.344 14.341 12.001 15.998 12.001C16.274 12.001 16.498 11.777 16.498 11.501C16.498 11.225 16.274 11.001 15.998 11.001Z" fill="currentColor"/>
<path fill-rule="evenodd" clip-rule="evenodd" d="M29.49 6.042L25.156 5.319L23.783 1.885C23.324 0.74 22.23 0 20.998 0H10.998C9.76605 0 8.67205 0.74 8.21205 1.886L6.84005 5.319L2.50705 6.042C1.05305 6.283 -0.00195312 7.527 -0.00195312 9V24C-0.00195312 25.654 1.34405 27 2.99805 27H28.998C30.652 27 31.998 25.654 31.998 24V9C31.998 7.527 30.943 6.283 29.49 6.042ZM29.998 24C29.998 24.553 29.551 25 28.998 25H2.99805C2.44505 25 1.99805 24.553 1.99805 24V9C1.99805 8.511 2.35205 8.094 2.83405 8.014L8.27805 7.107L10.069 2.629C10.222 2.25 10.589 2 10.998 2H20.998C21.406 2 21.773 2.249 21.926 2.629L23.717 7.107L29.162 8.014C29.644 8.094 29.998 8.511 29.998 9V24Z" fill="currentColor"/>
</svg>
