<svg width="20" height="20" viewBox="0 0 10 10" fill="none" xmlns="http://www.w3.org/2000/svg">
<path d="M0.5 5C0.5 2.51472 2.51472 0.5 5 0.5C7.48531 0.5 9.50001 2.51472 9.50001 5C9.50001 7.48531 7.48531 9.50001 5 9.50001C2.51472 9.50001 0.5 7.48531 0.5 5Z" fill="#4B4B4B"/>
<path d="M9.00001 5C9.00001 2.79086 7.20916 0.999991 5 0.999991C2.79086 0.999991 0.999991 2.79086 0.999991 5C0.999991 7.20916 2.79086 9.00001 5 9.00001C7.20916 9.00001 9.00001 7.20916 9.00001 5ZM10 5C10 7.76144 7.76144 10 5 10C2.23858 10 9.27755e-08 7.76145 0 5C0 2.23858 2.23858 0 5 0C7.76145 9.28238e-08 10 2.23858 10 5Z" fill="#4B4B4B"/>
<path d="M6.14645 3.14645C6.34171 2.95118 6.6583 2.95118 6.85356 3.14645C7.04882 3.34171 7.04882 3.65829 6.85356 3.85356L5.70711 5L6.85356 6.14645C7.04882 6.34171 7.04882 6.6583 6.85356 6.85356C6.6583 7.04882 6.34171 7.04882 6.14645 6.85356L5 5.70711L3.85356 6.85356C3.65829 7.04882 3.34171 7.04882 3.14645 6.85356C2.95118 6.6583 2.95118 6.34171 3.14645 6.14645L4.29289 5L3.14645 3.85356C2.95118 3.65829 2.95118 3.34171 3.14645 3.14645C3.34171 2.95118 3.65829 2.95118 3.85356 3.14645L5 4.29289L6.14645 3.14645Z" fill="white"/>
</svg>
