<svg width="20" height="20" viewBox="0 0 20 20" fill="none" xmlns="http://www.w3.org/2000/svg">
<g clip-path="url(#clip0_162_8262)">
<path d="M1.66602 1.66675L18.3327 18.3334" stroke="#4B4B4B" stroke-width="1.4" stroke-linecap="round" stroke-linejoin="round"/>
<path d="M5.59332 5.60225C3.05334 7.32947 1.66602 10.0001 1.66602 10.0001C1.66602 10.0001 4.69632 15.8334 9.99935 15.8334C11.7079 15.8334 13.1805 15.2279 14.3919 14.4071M9.16602 4.21526C9.43718 4.18352 9.71502 4.16675 9.99935 4.16675C15.3023 4.16675 18.3327 10.0001 18.3327 10.0001C18.3327 10.0001 17.7562 11.1098 16.666 12.3613" stroke="#4B4B4B" stroke-width="1.4" stroke-linecap="round" stroke-linejoin="round"/>
<path d="M11.6667 11.8636C11.2243 12.2594 10.6403 12.5002 10 12.5002C8.61925 12.5002 7.5 11.3809 7.5 10.0002C7.5 9.31375 7.77661 8.692 8.22443 8.24023" stroke="#4B4B4B" stroke-width="1.4" stroke-linecap="round" stroke-linejoin="round"/>
</g>
<defs>
<clipPath id="clip0_162_8262">
<rect width="20" height="20" fill="white"/>
</clipPath>
</defs>
</svg>
