<svg width="21" height="21" viewBox="0 0 21 21" fill="none" xmlns="http://www.w3.org/2000/svg">
<path d="M16.83 7.14C18.7986 7.14 20.4 5.5386 20.4 3.57C20.4 1.6014 18.7986 0 16.83 0C14.8614 0 13.26 1.6014 13.26 3.57C13.26 5.5386 14.8614 7.14 16.83 7.14ZM18.36 15.3V8.9658C17.85 9.1086 17.34 9.18 16.83 9.18C16.6566 9.18 16.4934 9.18 16.32 9.18V15.3C16.32 16.9932 14.9532 18.36 13.26 18.36H5.1C3.4068 18.36 2.04 16.9932 2.04 15.3V7.14C2.04 5.4468 3.4068 4.08 5.1 4.08H11.22C11.22 3.9168 11.22 3.7434 11.22 3.57C11.22 3.06 11.2914 2.55 11.4342 2.04H5.1C2.2848 2.04 0 4.3248 0 7.14V15.3C0 18.1152 2.2848 20.4 5.1 20.4H13.26C16.0752 20.4 18.36 18.1152 18.36 15.3Z" fill="black"/>
</svg>
